<svg width="52" height="52" viewBox="0 0 52 52" fill="none" xmlns="http://www.w3.org/2000/svg">
<path d="M19.6133 24.3516C20.5103 24.3516 21.2383 23.6236 21.2383 22.7266V16.3891C21.2383 13.5559 23.5433 11.25 26.3765 11.25C29.2097 11.25 31.5156 13.5559 31.5156 16.3891V22.7266C31.5156 23.6236 32.2428 24.3516 33.1406 24.3516C34.0376 24.3516 34.7656 23.6236 34.7656 22.7266V16.3891C34.7664 11.7635 31.0029 8 26.3765 8C21.7518 8 17.9883 11.7635 17.9883 16.3891V22.7266C17.9883 23.6236 18.7163 24.3516 19.6133 24.3516Z" fill="black"/>
<path d="M45.0169 20.7002H36.3914V22.7266C36.3914 24.5189 34.9338 25.9766 33.1414 25.9766C31.349 25.9766 29.8914 24.5189 29.8914 22.7266V20.7002H22.8641V22.7266C22.8641 24.5189 21.4064 25.9766 19.6141 25.9766C17.8217 25.9766 16.3641 24.5189 16.3641 22.7266V20.7002H7.64188C7.19338 20.7002 6.91632 21.0536 7.02276 21.4891L12.7086 44.6429C13.0515 45.9446 14.4214 47 15.7669 47H36.8919C38.239 47 39.6073 45.9446 39.9518 44.6429L45.636 21.4891C45.7424 21.0528 45.4662 20.7002 45.0169 20.7002Z" fill="black"/>
</svg>
