<svg width="15" height="15" viewBox="0 0 15 15" fill="none" xmlns="http://www.w3.org/2000/svg">
<g clip-path="url(#clip0_13_33)">
<path d="M14.0208 11.1703C14.6482 10.0732 15 8.82016 15 7.48917C15 6.15818 14.6482 4.8852 14.0208 3.80809C14.0008 3.76821 13.9809 3.75007 13.9628 3.73011C12.6698 1.51781 10.2617 0.0290527 7.5 0.0290527C4.75822 0.0290527 2.35009 1.51781 1.03723 3.73009C1.01728 3.75004 0.997351 3.78811 0.979212 3.80806C0.351783 4.88518 0 6.1382 0 7.48915C0 11.6218 3.34925 14.971 7.48186 14.971C10.2236 14.971 12.6318 13.4822 13.9446 11.27C13.9809 11.2283 14.0008 11.2083 14.0208 11.1703ZM0.761612 7.84093H3.28942C3.3293 8.82014 3.52516 9.7794 3.83706 10.6806H1.54497C1.09526 9.81749 0.821447 8.85823 0.761612 7.84093ZM1.54497 4.29584H3.83703C3.50336 5.19708 3.32749 6.13638 3.28939 7.1156H0.761612C0.821447 6.0965 1.09526 5.13724 1.54497 4.29584ZM14.2565 7.1156H11.7686C11.7287 6.13638 11.5329 5.19708 11.221 4.29584H13.4732C13.9229 5.13724 14.1967 6.0965 14.2565 7.1156ZM11.0433 7.1156H7.86992V4.29584H10.4358C10.7894 5.17713 11.0052 6.11646 11.0433 7.1156ZM7.87174 3.57051V0.828733C8.81104 1.59216 9.57628 2.51332 10.104 3.55056H7.87174V3.57051ZM7.1464 0.868615V3.55237H4.95227C5.48174 2.53328 6.22703 1.63204 7.1464 0.868615ZM7.1464 4.29584V7.1156H4.01294C4.05282 6.13638 4.26682 5.17713 4.62041 4.29584H7.1464ZM4.01294 7.84093H7.1464V10.6806H4.62041C4.26863 9.7794 4.05282 8.82014 4.01294 7.84093ZM7.1464 11.4042V14.0879C6.22521 13.3444 5.48174 12.4232 4.95227 11.4042H7.1464ZM7.87174 14.126V11.4042H10.104C9.55633 12.4432 8.81104 13.3626 7.87174 14.126ZM7.87174 10.6806V7.84093H11.0451C11.0052 8.84009 10.7912 9.79935 10.4376 10.6806H7.87174ZM11.7686 7.84093H14.2566C14.1985 8.86002 13.9229 9.83923 13.4532 10.6806H11.221C11.5329 9.7794 11.7287 8.82014 11.7686 7.84093ZM13.0216 3.57051H10.9073C10.4576 2.5913 9.81021 1.67013 9.02683 0.906708C10.6516 1.28026 12.0624 2.23952 13.0216 3.57051ZM6.04933 0.888568C5.24603 1.67192 4.62041 2.57316 4.14896 3.57232H1.99649C2.95575 2.21956 4.38467 1.24035 6.04933 0.888568ZM1.99649 11.4042H4.13079C4.60046 12.4033 5.22786 13.3045 6.03117 14.0879C4.38467 13.7162 2.95575 12.737 1.99649 11.4042ZM9.02683 14.068C9.81018 13.2846 10.4557 12.3834 10.9073 11.4042H13.0035C12.0624 12.717 10.6516 13.6962 9.02683 14.068Z" fill="black"/>
</g>
<defs>
<clipPath id="clip0_13_33">
<rect width="15" height="15" fill="white"/>
</clipPath>
</defs>
</svg>
