<svg width="36" height="37" viewBox="0 0 36 37" fill="none" xmlns="http://www.w3.org/2000/svg">
<path d="M18 0.208008C8.05957 0.208008 0 8.26759 0 18.208C0 28.1483 8.05957 36.208 18 36.208C27.9404 36.208 35.9998 28.1482 35.9998 18.208C35.9999 8.26759 27.9404 0.208008 18 0.208008ZM27.5051 26.472L26.0639 27.9135C25.8066 28.1705 25.0532 28.3308 25.029 28.3308C20.4696 28.3706 16.0796 26.5797 12.8541 23.3538C9.61973 20.1176 7.82675 15.712 7.8749 11.1372C7.8749 11.1351 8.03991 10.4033 8.29699 10.1486L9.73814 8.70727C10.2655 8.17745 11.2786 7.93802 11.9882 8.17544L12.2914 8.27657C12.999 8.51377 13.7419 9.29615 13.9374 10.0169L14.6623 12.6777C14.8578 13.4006 14.5942 14.429 14.0669 14.9564L13.1046 15.9188C14.0494 19.4165 16.7938 22.1614 20.292 23.1085L21.254 22.1458C21.7838 21.616 22.8118 21.3525 23.5331 21.5477L26.1935 22.2753C26.9145 22.4734 27.6967 23.2116 27.9338 23.919L28.035 24.2265C28.27 24.9342 28.0324 25.947 27.5051 26.472Z" fill="black"/>
</svg>
