<svg width="36" height="37" viewBox="0 0 36 37" fill="none" xmlns="http://www.w3.org/2000/svg">
<path fill-rule="evenodd" clip-rule="evenodd" d="M0 18.208C0 8.26691 8.0589 0.208008 18 0.208008C27.9411 0.208008 36 8.26691 36 18.208C36 28.1491 27.9411 36.208 18 36.208C8.0589 36.208 0 28.1491 0 18.208ZM18.9416 24.1151C18.9416 24.1151 19.2881 24.0773 19.4656 23.8902C19.628 23.7187 19.6224 23.3952 19.6224 23.3952C19.6224 23.3952 19.6008 21.8844 20.3155 21.6612C21.0198 21.4419 21.9241 23.1223 22.8839 23.7685C23.6088 24.2571 24.1591 24.1501 24.1591 24.1501L26.7237 24.1151C26.7237 24.1151 28.0647 24.0339 27.4289 22.9988C27.3763 22.914 27.058 22.2328 25.5227 20.8335C23.914 19.3688 24.13 19.6056 26.0663 17.0717C27.2459 15.5286 27.7172 14.5865 27.5698 14.1837C27.4299 13.7984 26.5621 13.9007 26.5621 13.9007L23.6755 13.9182C23.6755 13.9182 23.4613 13.8897 23.3026 13.9827C23.1477 14.074 23.0472 14.2869 23.0472 14.2869C23.0472 14.2869 22.5908 15.4806 21.9814 16.4964C20.6958 18.6387 20.1821 18.7521 19.9717 18.6194C19.4825 18.3087 19.6046 17.3731 19.6046 16.7085C19.6046 14.6317 19.9258 13.7661 18.9801 13.5421C18.6665 13.4675 18.4355 13.4186 17.6325 13.4103C16.6024 13.4002 15.7309 13.414 15.2369 13.6509C14.9083 13.8085 14.6547 14.1606 14.8097 14.181C15.0003 14.2058 15.4323 14.2953 15.6614 14.6013C15.9572 14.9967 15.9469 15.8835 15.9469 15.8835C15.9469 15.8835 16.1169 18.3281 15.5497 18.6313C15.1609 18.8397 14.6275 18.4147 13.4809 16.4706C12.894 15.4752 12.4507 14.3745 12.4507 14.3745C12.4507 14.3745 12.3652 14.169 12.2122 14.0583C12.0272 13.9247 11.7689 13.8832 11.7689 13.8832L9.02595 13.9007C9.02595 13.9007 8.61368 13.9118 8.46248 14.0878C8.32823 14.2436 8.45212 14.5671 8.45212 14.5671C8.45212 14.5671 10.5998 19.4997 13.032 21.9858C15.2623 24.2644 17.7941 24.1151 17.7941 24.1151H18.9416Z" fill="black"/>
</svg>
