<svg width="37" height="37" viewBox="0 0 37 37" fill="none" xmlns="http://www.w3.org/2000/svg">
<path d="M18.671 36.6339C28.6121 36.6339 36.671 28.575 36.671 18.6339C36.671 8.69273 28.6121 0.63385 18.671 0.63385C8.72989 0.63385 0.671021 8.69273 0.671021 18.6339C0.671021 28.575 8.72989 36.6339 18.671 36.6339Z" fill="black"/>
<path d="M24.6038 8H22.7677C22.605 8 22.5036 8.07984 22.48 8.19556C22.4568 8.31171 19.7266 16.6363 19.5281 17.3298C19.3874 17.8214 18.9288 19.5544 18.8187 19.9706L17.8691 17.3782C17.6384 16.6647 15.427 10.4868 15.3623 10.24C15.3265 10.1044 15.2642 9.93568 15.0263 9.93568H13.2338C13.0585 9.93568 12.9594 10.1279 13.0159 10.2472C13.061 10.3426 16.299 18.9567 17.607 22.2473V29.4827C17.607 29.6146 17.6597 29.6939 17.7914 29.6939H19.489C19.5943 29.6939 19.6734 29.6146 19.6734 29.4827V22.624V22.3044C20.7637 19.259 24.7467 8.42568 24.7901 8.3044C24.843 8.15614 24.8275 8 24.6038 8Z" fill="#D7472D"/>
</svg>
